# xmcd
#
# Track frame offsets: 
#        150
#        16840
#        34615
#        52060
#        65048
#        81140
#        93665
#        106165
#        123913
#        139053
#        157305
#        172150
#
# Disc length: 2491 seconds
#
# Revision: 0
# Processed by: cddbd v1.4PL0 Copyright (c) Steve Scherf et al.
# Submitted via: ExactAudioCopy v0.90b4
#
DISCID=a509b90c
DTITLE=Craig Duncan and the Smoky Mountain Band - Deep River
DYEAR=1994
DGENRE=Bluegrass
TTITLE0=Farther Along
TTITLE1=Somebody's Knocking At Your Door/Everyone I Feel The Spirt
TTITLE2=Deep River
TTITLE3=Will The Circle Be Unbroken
TTITLE4=Lord, I Want To Be A Christian/Let Us Break Bread Together
TTITLE5=Peace Like A River
TTITLE6=I'll Fly Away
TTITLE7=Were You There
TTITLE8=Down By The Riverside
TTITLE9=Nobody Knows The Trouble I've Seen
TTITLE10=Oh, How I Love Jesus
TTITLE11=What A Friend We Have In Jesus
EXTD=
EXTT0=
EXTT1=
EXTT2=
EXTT3=
EXTT4=
EXTT5=
EXTT6=
EXTT7=
EXTT8=
EXTT9=
EXTT10=
EXTT11=
PLAYORDER=
